<?xml version="1.0" encoding="UTF-8"?>
<svg width="540px" height="354px" viewBox="0 0 540 354" version="1.1" xmlns="http://www.w3.org/2000/svg" xmlns:xlink="http://www.w3.org/1999/xlink">
    <title>logo</title>
    <defs>
        <path d="M24.589,113 L24.589,0.855135135 L0.721,0.855135135 L0.721,113 L24.589,113 Z M67.943,113 L67.943,37.9252432 L129.908,113 L154.388,113 L154.388,0.855135135 L130.367,0.855135135 L130.367,75.6183784 L68.708,0.855135135 L44.228,0.855135135 L44.228,113 L67.943,113 Z" id="path-1"></path>
    </defs>
    <g id="Page-1" stroke="none" stroke-width="1" fill="none" fill-rule="evenodd">
        <g id="logo" transform="translate(1.000000, 1.000000)">
            <path d="M521.532662,351 L15.4673377,351 C6.70809367,324.565312 2,296.265938 2,266.979375 C2,119.559375 121.3447,0 268.5,0 C415.6553,0 535,119.559375 535,266.979375 C535,296.375625 530.291906,324.565312 521.532662,351 Z" id="Path" fill="#2A4057"></path>
            <path d="M500.694947,351 L38.3050534,351 C30.3017666,326.523437 26,300.320312 26,273.203125 C26,136.703125 135.044782,26 269.5,26 C403.955218,26 513,136.703125 513,273.203125 C513,300.421875 508.698233,326.523437 500.694947,351 Z" id="Path" fill="#FFFFFF"></path>
            <path d="M98.7882169,319.044983 L87.7906717,319.044983 C87.7906717,321.152249 86.1910288,322.858131 84.0914974,322.858131 L60.4967641,322.858131 C58.3972328,322.858131 56.7975898,321.252595 56.7975898,319.044983 L56.7975898,292.854671 C56.7975898,290.847751 58.2972551,289.141869 60.4967641,289.141869 L84.0914974,289.141869 C86.0910511,289.141869 87.7906717,290.747405 87.7906717,292.854671 L99.2881053,292.553633 L99.2881053,283.422145 C99.2881053,279.809689 96.4887302,277 92.8895336,277 L52.3985717,277 C48.7993751,277 46,279.809689 46,283.422145 L46,328.477509 C46,332.089965 48.7993751,334.899654 52.3985717,334.899654 L92.9895113,334.899654 C96.5887079,334.899654 99.388083,332.089965 99.388083,328.477509 L98.7882169,319.044983 L98.7882169,319.044983 Z M357.130551,300.882353 C357.130551,297.771626 357.130551,294.560554 357.030574,291.349481 C357.030574,289.141869 358.230306,288.138408 360.429815,288.138408 L398.521312,288.138408 L398.521312,277 L350.332069,277 L350.332069,277.100346 C347.332738,277.401384 345.133229,279.910035 345.133229,283.020761 L345.133229,328.878893 C345.133229,331.989619 347.332738,334.49827 350.332069,334.899654 L398.521312,334.899654 L398.521312,323.761246 L360.329837,323.761246 C358.330283,323.861592 357.030574,322.657439 357.030574,320.550173 L357.130551,312.121107 L382.724838,312.121107 L382.724838,300.982699 L357.130551,300.982699 L357.130551,300.882353 Z M290.245481,322.958478 L259.65231,322.958478 L259.65231,288.941176 L290.245481,288.941176 C291.945102,288.941176 293.244811,290.145329 293.244811,291.650519 L293.244811,320.249135 C293.244811,321.754325 292.045079,322.958478 290.245481,322.958478 Z M298.943539,334.899654 C301.742915,334.899654 303.842446,332.892734 303.842446,330.283737 L303.842446,281.716263 C303.842446,279.107266 301.742915,277.100346 298.943539,277.100346 L249.954474,277.100346 L249.954474,335 L298.943539,335 L298.943539,334.899654 L298.943539,334.899654 Z M167.27293,284.32526 C167.27293,280.311419 165.473332,277 159.574649,277 L120.783307,277 C115.584468,277 113.484936,280.211073 113.484936,284.425606 L113.484936,334.899654 L123.882615,334.899654 L123.882615,290.847751 C123.882615,289.342561 125.382281,288.038062 127.081901,288.038062 L153.775943,288.038062 C156.375363,288.038062 157.075206,289.041522 157.075206,291.349481 L157.075206,299.778547 L123.982593,299.778547 L123.982593,310.816609 L157.075206,310.816609 L157.075206,334.899654 L167.472886,334.899654 L167.27293,284.32526 L167.27293,284.32526 Z M426.814997,300.882353 L423.715688,300.882353 L423.715688,289.242215 L452.209328,289.242215 C453.908949,289.242215 455.308636,290.647059 455.308636,292.352941 L455.308636,297.771626 C455.308636,299.477509 453.908949,300.882353 452.209328,300.882353 L426.814997,300.882353 Z M423.115822,277 L412.618166,277 L412.618166,334.899654 L423.115822,334.899654 L423.115822,311.318339 L442.011605,311.318339 L454.908726,334.899654 L465.906271,334.899654 L453.00915,311.318339 L460.607454,311.318339 C464.106673,311.318339 466.80607,308.709343 466.80607,305.397924 L466.80607,282.920415 C466.80607,279.608997 464.106673,277 460.607454,277 L423.115822,277 L423.115822,277 Z M195.666592,300.882353 L192.567284,300.882353 L192.567284,289.242215 L221.060924,289.242215 C222.760545,289.242215 224.160232,290.647059 224.160232,292.352941 L224.160232,297.771626 C224.160232,299.477509 222.760545,300.882353 221.060924,300.882353 L195.666592,300.882353 Z M192.067396,277 L181.569739,277 L181.569739,334.899654 L192.067396,334.899654 L192.067396,311.318339 L210.963178,311.318339 L223.860299,334.899654 L234.857844,334.899654 L221.960723,311.318339 L229.559027,311.318339 C233.058246,311.318339 235.757643,308.709343 235.757643,305.397924 L235.757643,282.920415 C235.757643,279.608997 233.058246,277 229.559027,277 L192.067396,277 L192.067396,277 Z M481.002901,277 L494,277 L494,334.899654 L481.002901,334.899654 L481.002901,277 Z M318.039277,277 L331.036376,277 L331.036376,334.899654 L318.039277,334.899654 L318.039277,277 Z" id="Shape" fill="#2A4057"></path>
            <path d="M526.908247,352 L520.712853,352 C528.107355,327.366108 532.004458,301.103528 532.004458,274.026605 C532.004458,126.121457 414.192051,6.10757663 269,6.10757663 C123.807949,6.10757663 5.99554235,126.019665 5.99554235,274.026605 C5.99554235,301.205321 9.99257058,327.366108 17.2871471,352 L11.0917533,352 C3.89710253,327.264315 0,301.103528 0,274.026605 C0,122.76229 120.410475,0 269,0 C417.489599,0 538,122.660497 538,274.026605 C538,301.103528 534.102897,327.264315 526.908247,352 L526.908247,352 Z" id="Path" stroke="#FFF200" stroke-width="1.0001" fill="#FFF200"></path>
            <g id="Group" transform="translate(120.000000, 120.000000)">
                <path d="M219.679663,55.3898387 L262.679663,86.1339828 C252.079663,94.278127 245.779663,93.8709197 234.479663,93.2601089 C219.979663,92.4456945 209.379663,86.4393882 202.479663,75.4447936 C197.979663,68.2168657 196.979663,61.7015504 197.879663,55.2880369 C202.179663,26.0709197 235.079663,13.2438927 262.179663,25.5619107 L219.679663,55.3898387 Z M253.979663,56.2042531 L296.879663,25.2565053 C284.779663,10.4952441 261.479663,1.23128011 239.679663,0.722271099 C202.079663,0.00965848652 175.979663,23.2204693 173.579663,55.2880369 C171.179663,87.3556044 196.479663,112.806055 239.679663,112.500649 C261.779663,112.297046 284.679663,99.368217 296.279663,83.1817306 L253.979663,56.2042531 Z M291.879663,44.9042531 C298.979663,44.9042531 304.879663,49.587136 304.879663,55.3898387 C304.879663,61.1925414 298.879663,65.9772261 291.879663,65.9772261 C284.479663,65.9772261 278.679663,61.1925414 278.679663,55.3898387 C278.679663,49.6889378 284.479663,44.9042531 291.879663,44.9042531 Z" id="Shape" stroke="#2A4057" stroke-width="0.216" fill="#2A4057"></path>
                <g id="IN" fill-rule="nonzero">
                    <use fill="#000000" xlink:href="#path-1"></use>
                    <use fill="#2A4057" xlink:href="#path-1"></use>
                </g>
            </g>
        </g>
    </g>
</svg>